
<svg xmlns="http://www.w3.org/2000/svg" fill="none" viewBox="0 0 40 40">
  <g class="ai__AI">
    <g class="ai__instance">
      <path fill="#fff" fill-rule="evenodd" d="M27.6438 11.74c.2585.8815.8793 1.5784 1.6719 1.9483.4032.1882.851.2917 1.3181.2917h.625l-2.135.865-2.215-.865h-5.285c-.667 0-1.2945.211-1.8095.5784-.5544.3954-.9783.9721-1.1805 1.6616l-.385 1.325 1.56-8.49c.27-1.48 1.56-2.555 3.065-2.555h.91c.9996 0 1.9106.47662 2.4869 1.24.2154.28545.3841.61099.4931.96671.0031.01017.0062.02037.0092.03059.0002.0009.0005.0018.0008.0027h-.01l.88 3Zm-1.895-2.90726C25.4299 8.03472 24.6555 7.5 23.7838 7.5h-.91c-1.0225 0-1.8981.73024-2.0813 1.73447l-.0002.00125-.7455 4.05748c.489-.2028 1.0227-.3132 1.577-.3132h5.4733l.0077.003c-.1776-.2961-.3199-.6183-.4206-.9615 0-.0001 0 0 0 0l-.9354-3.18876ZM12.5888 28.195c-.2718-.9386-.9594-1.6731-1.8291-2.024-.3627-.1463-.7569-.226-1.16594-.226h-.615l2.05504-1.03 1.9 1.03h5.33c.9298 0 1.7829-.4101 2.3613-1.0821.2832-.329.5005-.7208.6287-1.1579l.44-1.505-.0416 1.6215-.1684 6.5635c-.045 1.69-1.425 3.035-3.115 3.035h-1.93c-1.006 0-1.9228-.4792-2.4987-1.25-.2164-.2897-.3847-.6207-.4913-.9828-.0016-.0053-.0031-.0106-.0047-.0159-.0001-.0004-.0002-.0008-.0003-.0013h.005l-.86-2.975Zm1.8605 2.8353-.8999-3.113c-.1004-.3468-.2438-.6729-.4234-.9723h5.1378c.8535 0 1.6583-.2619 2.3264-.7196l-.1061 4.133v.0007c-.031 1.1486-.9682 2.0609-2.1153 2.0609h-1.93c-.8974 0-1.6877-.5594-1.9895-1.3897Z" class="ai__content" clip-rule="evenodd"/>
      <path fill="#fff" d="M23.649 6.5h-10.79c-3.08505 0-4.93505 4.075-6.17005 8.15-1.46 4.83-3.375 11.29 2.16 11.29H13.509c1.395 0 2.615-.92 3-2.26.81-2.835 2.23-7.78 3.345-11.545.565-1.915 1.04-3.555 1.765-4.58.405-.575 1.085-1.055 2.035-1.055h-.005Z" class="ai__content"/>
      <path fill="#fff" d="M23.649 6.5h-10.79c-3.08505 0-4.93505 4.075-6.17005 8.15-1.46 4.83-3.375 11.29 2.16 11.29H13.509c1.395 0 2.615-.92 3-2.26.81-2.835 2.23-7.78 3.345-11.545.565-1.915 1.04-3.555 1.765-4.58.405-.575 1.085-1.055 2.035-1.055h-.005Zm-7.4 26.92h10.795c3.085 0 4.935-4.075 6.17-8.155 1.46-4.83 3.375-11.29-2.16-11.29h-4.66c-1.395 0-2.615.92-3 2.26-.81 2.835-2.23 7.78-3.345 11.55-.565 1.915-1.04 3.555-1.765 4.58-.405.575-1.085 1.055-2.035 1.055Z" class="ai__content"/>
      <path fill="#fff" d="M16.249 33.42h10.795c3.085 0 4.935-4.075 6.17-8.155 1.46-4.83 3.375-11.29-2.16-11.29h-4.66c-1.395 0-2.615.92-3 2.26-.81 2.835-2.23 7.78-3.345 11.55-.565 1.915-1.04 3.555-1.765 4.58-.405.575-1.085 1.055-2.035 1.055Z" class="ai__content"/>
    </g>
  </g>
</svg>