
<svg xmlns="http://www.w3.org/2000/svg" fill="none" viewBox="0 0 40 40">
  <g class="cut__CUT">
    <g class="cut__instance">
      <path fill="#fff" d="M26.3 28.1 20 21.8l-2.115 2.115c.12.225.2025.465.2475.72.045.255.0675.51.0675.765 0 .99-.3525 1.8375-1.0575 2.5425C16.4375 28.6475 15.59 29 14.6 29s-1.8375-.3525-2.5425-1.0575C11.3525 27.2375 11 26.39 11 25.4s.3525-1.8375 1.0575-2.5425C12.7625 22.1525 13.61 21.8 14.6 21.8c.255 0 .51.0225.765.0675.255.045.495.1275.72.2475L18.2 20l-2.115-2.115c-.225.12-.465.2025-.72.2475-.255.045-.51.0675-.765.0675-.99 0-1.8375-.3525-2.5425-1.0575C11.3525 16.4375 11 15.59 11 14.6s.3525-1.8375 1.0575-2.5425C12.7625 11.3525 13.61 11 14.6 11s1.8375.3525 2.5425 1.0575c.705.705 1.0575 1.5525 1.0575 2.5425 0 .255-.0225.51-.0675.765-.045.255-.1275.495-.2475.72L29 27.2v.9h-2.7Zm-3.6-9-1.8-1.8 5.4-5.4H29v.9l-6.3 6.3Zm-8.1-2.7c.495 0 .9186-.1764 1.2708-.5292.3528-.3522.5292-.7758.5292-1.2708 0-.495-.1764-.9186-.5292-1.2708-.3522-.3528-.7758-.5292-1.2708-.5292-.495 0-.9186.1764-1.2708.5292-.3528.3522-.5292.7758-.5292 1.2708 0 .495.1764.9186.5292 1.2708.3522.3528.7758.5292 1.2708.5292Zm5.4 4.05c.12 0 .225-.045.315-.135.09-.09.135-.195.135-.315s-.045-.225-.135-.315c-.09-.09-.195-.135-.315-.135s-.225.045-.315.135c-.09.09-.135.195-.135.315s.045.225.135.315c.09.09.195.135.315.135Zm-5.4 6.75c.495 0 .9186-.1761 1.2708-.5283.3528-.3528.5292-.7767.5292-1.2717 0-.495-.1764-.9189-.5292-1.2717-.3522-.3522-.7758-.5283-1.2708-.5283-.495 0-.9186.1761-1.2708.5283-.3528.3528-.5292.7767-.5292 1.2717 0 .495.1764.9189.5292 1.2717.3522.3522.7758.5283 1.2708.5283Z" class="cut__content"/>
    </g>
  </g>
</svg>