
<svg xmlns="http://www.w3.org/2000/svg" fill="none" viewBox="0 0 40 40">
  <g class="display-preferences__DISPLAY_PREFERENCES">
    <g class="display-preferences__instance">
      <path fill="#fff" d="M23 18.5c0 .2761.2239.5.5.5h.5c.2761 0 .5-.2239.5-.5v-.75h.75c.4142 0 .75-.3358.75-.75s-.3358-.75-.75-.75h-.75v-.75c0-.2761-.2239-.5-.5-.5h-.5c-.2761 0-.5.2239-.5.5v3ZM14 17c0 .4142.3358.75.75.75H22v-1.5h-7.25c-.4142 0-.75.3358-.75.75Zm1.5 5.5c0 .2761.2239.5.5.5h.5c.2761 0 .5-.2239.5-.5v-3c0-.2761-.2239-.5-.5-.5H16c-.2761 0-.5.2239-.5.5v.75h-.75c-.4142 0-.75.3358-.75.75s.3358.75.75.75h.75v.75Zm2.5-.75h7.25c.4142 0 .75-.3358.75-.75s-.3358-.75-.75-.75H18v1.5ZM17 29c-.2833 0-.5207-.096-.712-.288-.192-.1913-.288-.4287-.288-.712v-1h-4c-.55 0-1.0207-.1957-1.412-.587C10.196 26.021 10 25.55 10 25V13c0-.55.196-1.021.588-1.413.3913-.3913.862-.587 1.412-.587h16c.55 0 1.021.1957 1.413.587.3913.392.587.863.587 1.413v12c0 .55-.1957 1.021-.587 1.413-.392.3913-.863.587-1.413.587h-4v1c0 .2833-.0957.5207-.287.712-.192.192-.4297.288-.713.288h-6Zm-5-4.5c0 .2761.2239.5.5.5h15c.2761 0 .5-.2239.5-.5v-11c0-.2761-.2239-.5-.5-.5h-15c-.2761 0-.5.2239-.5.5v11Z" class="display-preferences__content"/>
    </g>
  </g>
</svg>