
<svg xmlns="http://www.w3.org/2000/svg" fill="none" viewBox="0 0 40 40">
  <g class="lang-1__LANG1">
    <path fill="#fff" d="M5.50098 23.5v-7h1v6.21h3.21v.79h-4.21Zm4.95012 0 2.57-7h1.09l2.57 7h-1.07l-2.05-5.8-2.07 5.8h-1.04Zm1.16-1.73.28-.8h3.29l.28.8h-3.85Zm6.0969 1.73v-7h1l3.57 5.37V16.5h1v7h-1l-3.57-5.37v5.37h-1Zm10.1001.12c-.6533 0-1.2267-.15-1.72-.45-.4933-.3-.88-.72-1.16-1.26-.2733-.54-.41-1.17-.41-1.89 0-.7133.14-1.3433.42-1.89.28-.5467.6767-.9733 1.19-1.28.52-.3133 1.13-.47 1.83-.47.8 0 1.4667.1933 2 .58.5333.38.8733.91 1.02 1.59h-1.14c-.0933-.3867-.3033-.69-.63-.91-.32-.2267-.7367-.34-1.25-.34-.4933 0-.9233.11-1.29.33-.36.22-.6367.5333-.83.94-.1933.4067-.29.89-.29 1.45 0 .5667.0967 1.0533.29 1.46.1933.4067.4633.7167.81.93.3533.2133.76.32 1.22.32.7067 0 1.24-.2033 1.6-.61.36-.4067.5667-.95.62-1.63h-1.92v-.77h2.94v3.78h-.92l-.08-1.07c-.16.26-.3467.48-.56.66-.2067.1733-.4533.3067-.74.4-.28.0867-.6133.13-1 .13Zm5.6758-.12v-5.87l-1.41.45v-.81l1.78-.77h.65v7h-1.02Z" class="lang-1__content"/>
  </g>
</svg>